<?xml version="1.0" encoding="UTF-8"?>
<svg width="560px" height="560px" viewBox="0 0 560 560" version="1.1" xmlns="http://www.w3.org/2000/svg" xmlns:xlink="http://www.w3.org/1999/xlink">
    <!-- Generator: Sketch 54.1 (76490) - https://sketchapp.com -->
    <title>aDAI</title>
    <desc>Created with Sketch.</desc>
    <defs>
        <linearGradient x1="84.3%" y1="13.5%" x2="20.6%" y2="88.6%" id="linearGradient-1">
            <stop stop-color="#B6509E" offset="0%"></stop>
            <stop stop-color="#2EBAC6" offset="100%"></stop>
        </linearGradient>
        <linearGradient x1="50%" y1="114.2%" x2="50%" y2="-10.5%" id="linearGradient-2">
            <stop stop-color="#F9A606" offset="0%"></stop>
            <stop stop-color="#FBCC5F" offset="100%"></stop>
        </linearGradient>
    </defs>
    <g id="Page-1" stroke="none" stroke-width="1" fill="none" fill-rule="evenodd">
        <g id="aDAI" fill-rule="nonzero">
            <g id="c">
                <path d="M280.001,560.002 C261.047667,560.0058 242.142179,558.09984 223.571,554.313 C205.556152,550.623168 187.950689,545.159542 171.012,538.002 C154.361315,530.95321 138.432875,522.307472 123.45,512.186 C108.580139,502.1348 94.7041493,490.686497 82.011,477.997 C69.3216376,465.303187 57.8727309,451.427277 47.82,436.558 C37.6974671,421.573147 29.0507311,405.642711 22.001,388.99 C14.8412091,372.051434 9.37621577,354.445547 5.686,336.43 C1.900113,317.859419 -0.00451135128,298.954556 0.001,280.002 C-0.00365843327,261.048674 1.90197177,242.143134 5.689,223.572 C9.37831054,205.5569 14.8422972,187.951353 22.001,171.013 C29.0507498,154.362461 37.6964373,138.433779 47.817,123.45 C57.8693334,108.580734 69.3182726,94.7051196 82.008,82.012 C94.7016898,69.3225022 108.577613,57.8735844 123.447,47.821 C138.431291,37.6992812 154.360651,29.0525839 171.012,22.002 C187.95022,14.8422041 205.555776,9.3772096 223.571,5.687 C242.142263,1.90115402 261.047784,-0.0034692243 280.001,0.002 C298.954317,-0.00248191947 317.85984,1.9031465 336.431,5.69 C354.446121,9.37922794 372.051676,14.8432171 388.99,22.002 C405.640155,29.0514892 421.568498,37.6968398 436.552,47.817 C451.421357,57.8696235 465.297277,69.3185383 477.991,82.008 C490.680727,94.7011196 502.129667,108.576734 512.182,123.446 C522.303752,138.430975 530.950447,154.361002 538.001,171.013 C545.160864,187.951195 550.62586,205.556758 554.316,223.572 C558.102074,242.143228 560.0067,261.048773 560.001,280.002 C560.005384,298.955363 558.099418,317.860909 554.312,336.432 C550.621772,354.447544 545.156779,372.05343 537.997,388.992 C530.947918,405.642861 522.302196,421.571605 512.181,436.555 C502.128294,451.424295 490.679385,465.300208 477.99,477.994 C465.296814,490.683457 451.420828,502.131756 436.551,512.183 C421.568531,522.305399 405.64043,530.95214 388.99,538.002 C372.051508,545.161294 354.446036,550.626597 336.431,554.318 C317.859648,558.103147 298.954164,560.007432 280.001,560.002 Z M280.000992,30.0019923 C263.078354,29.9980734 246.198393,31.6996716 229.617,35.081 C213.531883,38.3758832 197.812534,43.255353 182.689,49.648 C167.822514,55.941923 153.60075,63.6613139 140.223,72.698 C126.94643,81.6731925 114.556907,91.895219 103.223,103.225 C91.8929347,114.558649 81.6708849,126.9482 72.696,140.225 C63.6596627,153.602962 55.9402906,167.824691 49.646,182.691 C43.2533715,197.814541 38.3739023,213.533888 35.079,229.619 C31.6979265,246.200077 29.9966622,263.079714 30.0009917,280.001992 C29.9969241,296.924654 31.6985238,313.80463 35.08,330.386 C38.3752644,346.471019 43.2547226,362.19033 49.647,377.314 C55.9412835,392.18063 63.6606543,406.402691 72.697,419.781 C81.6727097,433.057183 91.894697,445.446659 103.224,456.781 C114.558665,468.109947 126.948105,478.331905 140.224,487.308 C153.602384,496.343922 167.824038,504.063588 182.69,510.359 C197.813961,516.749753 213.53322,521.62819 229.618,524.923 C246.198964,528.304927 263.078654,530.006532 280.000992,530.001992 C296.923714,530.00627 313.803743,528.30433 330.385,524.922 C346.469803,521.627279 362.189071,516.74884 377.313,510.358 C392.178981,504.062628 406.400639,496.342959 419.779,487.307 C433.055329,478.331485 445.444823,468.109483 456.779,456.78 C468.108298,445.445655 478.330285,433.056179 487.306,419.78 C496.342255,406.401636 504.06162,392.179584 510.356,377.313 C516.748284,362.189333 521.627742,346.47002 524.923,330.385 C528.304114,313.803929 530.005379,296.924288 530.000992,280.001992 C530.005117,263.079344 528.303517,246.199364 524.922,229.618 C521.627072,213.532895 516.747604,197.81355 510.355,182.69 C504.060822,167.823636 496.341445,153.601896 487.305,140.224 C478.330086,126.947222 468.108038,114.557673 456.778,103.224 C445.444077,91.894237 433.054555,81.672212 419.778,72.697 C406.400263,63.6602924 392.178497,55.9409004 377.312,49.647 C362.188488,43.2542914 346.469133,38.3748197 330.384,35.08 C313.8029,31.699081 296.923278,29.9978183 280.000992,30.0019923 L280.000992,30.0019923 Z" id="Shape" fill="url(#linearGradient-1)"></path>
                <g id="Group" transform="translate(65.000000, 65.000000)">
                    <circle id="Oval" fill="url(#linearGradient-2)" cx="215" cy="215" r="215"></circle>
                    <path d="M342.492,179.525 L316.982,179.525 C302.935,140.539 265.167,113.807 215.359,113.807 L133.444,113.807 L133.444,179.525 L104.992,179.525 L104.992,203.107 L133.444,203.107 L133.444,227.832 L104.992,227.832 L104.992,251.407 L133.444,251.407 L133.444,316.337 L215.359,316.337 C264.594,316.337 302.076,289.82 316.481,251.407 L342.492,251.407 L342.492,227.829 L322.214,227.829 C322.730754,223.596179 322.99389,219.33624 323.002,215.072 L323.002,214.499 C323.002,210.629 322.787,206.831 322.429,203.104 L342.567,203.104 L342.567,179.525 L342.492,179.525 Z M156.377,134.807 L215.359,134.807 C251.909,134.807 279.071,152.795 291.612,179.455 L156.377,179.455 L156.377,134.807 Z M215.359,295.125 L156.377,295.125 L156.377,251.335 L291.469,251.335 C278.855,277.565 251.765,295.124 215.359,295.124 L215.359,295.125 Z M299.281,215.575 C299.287529,219.651392 299.000117,223.722949 298.421,227.758 L156.377,227.758 L156.377,203.032 L298.492,203.032 C299.011203,207.000292 299.274414,210.997891 299.28,215 L299.281,215.575 Z" id="Shape" fill="#FFFFFF"></path>
                </g>
            </g>
        </g>
    </g>
</svg>